<?xml version="1.0" encoding="utf-8"?>
<!-- Generator: Adobe Illustrator 16.0.4, SVG Export Plug-In . SVG Version: 6.00 Build 0)  -->
<!DOCTYPE svg PUBLIC "-//W3C//DTD SVG 1.1//EN" "http://www.w3.org/Graphics/SVG/1.1/DTD/svg11.dtd">
<svg version="1.1" xmlns="http://www.w3.org/2000/svg" xmlns:xlink="http://www.w3.org/1999/xlink" x="0px" y="0px" width="170px"
	 height="170px" viewBox="0 0 170 170" enable-background="new 0 0 170 170" xml:space="preserve">
<g id="BNackground" display="none">
</g>
<g id="Layer_1">
</g>
<g id="Layer_2">
	<g>
		<g>
			<polygon fill="#1087DD" points="65.75,27.927 38.126,45.964 57.226,61.26 85.079,44.061 			"/>
			<polygon fill="#1087DD" points="38.126,76.556 65.75,94.592 85.079,78.459 57.226,61.26 			"/>
			<polygon fill="#1087DD" points="85.079,78.459 104.409,94.592 132.033,76.556 112.933,61.26 			"/>
			<polygon fill="#1087DD" points="132.033,45.964 104.409,27.927 85.079,44.061 112.933,61.26 			"/>
			<polygon fill="#1087DD" points="85.136,81.93 65.75,98.017 57.454,92.6 57.454,98.671 85.136,115.273 112.818,98.671 
				112.818,92.6 104.523,98.017 			"/>
		</g>
		<g>
			<g>
				<path fill="#1087DD" d="M43.171,118.502h-5.164v21.937h5.756c1.678,0,4.047,0,5.987-1.514c2.369-1.81,3.587-5.492,3.587-9.603
					C53.337,118.536,46.526,118.502,43.171,118.502z M43.631,136.657H42.81v-14.373h0.821c1.941,0,4.606,0.23,4.606,6.973
					C48.237,136.427,45.54,136.657,43.631,136.657z M58.6,128.138v-3.913h-3.98v16.214h4.506v-7.006c0-1.249,0-4.999,3.322-4.999
					c0.165,0,0.362,0,0.757,0.066v-4.408c-0.229-0.065-0.459-0.099-0.789-0.099C59.783,123.995,58.994,126.757,58.6,128.138z
					 M70.112,123.863c-4.836,0-6.611,3.388-6.611,8.453c0,5.228,1.907,8.451,6.578,8.451c4.737,0,6.613-3.256,6.613-8.451
					C76.692,127.251,74.915,123.863,70.112,123.863z M70.112,137.609c-1.349,0-1.941-0.986-1.941-5.293
					c0-3.98,0.461-5.296,1.908-5.296h0.033c1.382,0,1.908,1.117,1.908,5.296C72.021,136.657,71.428,137.609,70.112,137.609z
					 M85.672,123.995c-2.204,0-3.092,1.612-3.651,2.664v-2.433h-4.178v21.707h4.441v-6.678c0.493,0.527,1.315,1.415,3.092,1.415
					c5.165,0,5.494-6.249,5.494-8.552c0-2.729-0.526-5.262-2.105-6.872C87.975,124.456,86.758,123.995,85.672,123.995z
					 M84.192,137.544c-1.908,0-1.908-1.38-1.908-3.716v-3.091c0-1.447,0-3.749,2.039-3.749c1.744,0,1.875,2.269,1.875,5.129
					C86.198,135.539,86.034,137.544,84.192,137.544z M99.883,123.995c-1.941,0-2.829,1.053-3.389,1.744v-7.236h-4.44v21.937h2.665
					c0.362-1.152,0.525-1.48,0.854-2.105c0.395,0.822,1.151,2.434,3.751,2.434c0.855,0,1.743-0.164,2.632-0.625
					c2.961-1.546,3.158-6.413,3.158-7.926C105.114,128.303,103.863,123.995,99.883,123.995z M98.403,137.643
					c-1.909,0-1.909-2.104-1.909-3.945v-3.749c0-0.822,0-1.646,0.527-2.271c0.328-0.427,0.855-0.689,1.447-0.689
					c1.282,0,1.974,1.085,1.974,5.361C100.442,136.525,99.817,137.643,98.403,137.643z M112.778,123.863
					c-4.836,0-6.612,3.388-6.612,8.453c0,5.228,1.908,8.451,6.579,8.451c4.737,0,6.612-3.256,6.612-8.451
					C119.357,127.251,117.581,123.863,112.778,123.863z M112.778,137.609c-1.35,0-1.941-0.986-1.941-5.293
					c0-3.98,0.461-5.296,1.908-5.296h0.033c1.381,0,1.908,1.117,1.908,5.296C114.687,136.657,114.094,137.609,112.778,137.609z
					 M127.515,131.362l4.178-7.137h-3.914l-2.072,3.749l-1.743-3.749h-4.902l4.179,7.927l-4.803,8.287h3.914l2.73-4.867l2.369,4.867
					h4.9L127.515,131.362z"/>
			</g>
		</g>
	</g>
	<g display="none">
		
			<line display="inline" fill="none" stroke="#3879BD" stroke-width="0.25" stroke-miterlimit="10" x1="38.063" y1="17.782" x2="38.063" y2="145.546"/>
		
			<line display="inline" fill="none" stroke="#3879BD" stroke-width="0.25" stroke-miterlimit="10" x1="131.944" y1="17.782" x2="131.944" y2="145.546"/>
	</g>
</g>
</svg>
