<?xml version="1.0" encoding="utf-8"?>
<!-- Generator: Adobe Illustrator 16.0.4, SVG Export Plug-In . SVG Version: 6.00 Build 0)  -->
<!DOCTYPE svg PUBLIC "-//W3C//DTD SVG 1.1//EN" "http://www.w3.org/Graphics/SVG/1.1/DTD/svg11.dtd">
<svg version="1.1" xmlns="http://www.w3.org/2000/svg" xmlns:xlink="http://www.w3.org/1999/xlink" x="0px" y="0px" width="446px"
	 height="170px" viewBox="0 0 446 170" enable-background="new 0 0 446 170" xml:space="preserve">
<g id="BNackground" display="none">
</g>
<g id="Layer_1">
</g>
<g id="Layer_2">
	<g>
		<g>
			<polygon fill="#1087DD" points="75.057,39.104 44.365,59.144 65.587,76.138 96.532,57.029 			"/>
			<polygon fill="#1087DD" points="44.365,93.133 75.057,113.172 96.532,95.246 65.587,76.138 			"/>
			<polygon fill="#1087DD" points="96.532,95.246 118.009,113.172 148.7,93.133 127.479,76.138 			"/>
			<polygon fill="#1087DD" points="148.7,59.144 118.009,39.104 96.532,57.029 127.479,76.138 			"/>
			<polygon fill="#1087DD" points="96.596,99.103 75.057,116.976 65.84,110.958 65.84,117.704 96.596,136.147 127.352,117.704 
				127.352,110.958 118.135,116.976 			"/>
		</g>
		<g>
			<g>
				<path fill="#1087DD" d="M176.896,59.069h-12.277v52.153h13.687c3.988,0,9.62,0,14.234-3.597
					c5.631-4.3,8.525-13.057,8.525-22.832C201.064,59.147,184.874,59.069,176.896,59.069z M177.99,102.231h-1.954V68.062h1.954
					c4.615,0,10.951,0.547,10.951,16.577C188.941,101.684,182.528,102.231,177.99,102.231z M213.577,81.979v-9.305h-9.463v38.548
					h10.714V94.568c0-2.972,0-11.885,7.898-11.885c0.393,0,0.861,0,1.799,0.156V72.361c-0.546-0.156-1.093-0.234-1.876-0.234
					C216.393,72.127,214.516,78.695,213.577,81.979z M240.95,71.814c-11.497,0-15.72,8.054-15.72,20.096
					c0,12.432,4.535,20.094,15.641,20.094c11.264,0,15.722-7.739,15.722-20.094C256.593,79.868,252.369,71.814,240.95,71.814z
					 M240.95,104.499c-3.207,0-4.614-2.347-4.614-12.589c0-9.46,1.095-12.589,4.535-12.589h0.079c3.285,0,4.537,2.659,4.537,12.589
					C245.487,102.231,244.078,104.499,240.95,104.499z M277.944,72.127c-5.241,0-7.354,3.831-8.683,6.333v-5.786h-9.933v51.607
					h10.559v-15.873c1.173,1.25,3.129,3.361,7.352,3.361c12.278,0,13.062-14.856,13.062-20.329c0-6.489-1.251-12.511-5.006-16.342
					C283.418,73.222,280.524,72.127,277.944,72.127z M274.423,104.341c-4.535,0-4.535-3.284-4.535-8.835v-7.35
					c0-3.439,0-8.913,4.85-8.913c4.144,0,4.457,5.395,4.457,12.197C279.194,99.573,278.805,104.341,274.423,104.341z
					 M311.729,72.127c-4.614,0-6.725,2.502-8.056,4.145V59.069h-10.558v52.153h6.335c0.86-2.736,1.251-3.518,2.033-5.004
					c0.938,1.955,2.737,5.786,8.917,5.786c2.033,0,4.145-0.39,6.256-1.484c7.039-3.676,7.509-15.248,7.509-18.845
					C324.165,82.37,321.192,72.127,311.729,72.127z M308.21,104.576c-4.537,0-4.537-5.002-4.537-9.383V86.28
					c0-1.955,0-3.91,1.253-5.396c0.781-1.016,2.033-1.641,3.44-1.641c3.05,0,4.693,2.58,4.693,12.745
					C313.06,101.918,311.573,104.576,308.21,104.576z M342.388,71.814c-11.497,0-15.721,8.054-15.721,20.096
					c0,12.432,4.536,20.094,15.642,20.094c11.263,0,15.721-7.739,15.721-20.094C358.029,79.868,353.806,71.814,342.388,71.814z
					 M342.388,104.499c-3.207,0-4.616-2.347-4.616-12.589c0-9.46,1.096-12.589,4.537-12.589h0.079c3.284,0,4.536,2.659,4.536,12.589
					C346.924,102.231,345.516,104.499,342.388,104.499z M377.425,89.642l9.932-16.968h-9.306l-4.927,8.914l-4.146-8.914h-11.654
					l9.934,18.845l-11.418,19.703h9.306l6.492-11.57l5.631,11.57h11.653L377.425,89.642z"/>
			</g>
		</g>
	</g>
	<g display="none">
		
			<line display="inline" fill="none" stroke="#3879BD" stroke-width="0.25" stroke-miterlimit="10" x1="55.692" y1="59.189" x2="402.531" y2="59.189"/>
		
			<line display="inline" fill="none" stroke="#3879BD" stroke-width="0.25" stroke-miterlimit="10" x1="55.692" y1="111.122" x2="402.531" y2="111.122"/>
	</g>
</g>
</svg>
