<?xml version="1.0" encoding="UTF-8" standalone="no"?>
<!-- Created with Inkscape (http://www.inkscape.org/) -->

<svg
   xmlns:dc="http://purl.org/dc/elements/1.1/"
   xmlns:cc="http://creativecommons.org/ns#"
   xmlns:rdf="http://www.w3.org/1999/02/22-rdf-syntax-ns#"
   xmlns:svg="http://www.w3.org/2000/svg"
   xmlns="http://www.w3.org/2000/svg"
   xmlns:sodipodi="http://sodipodi.sourceforge.net/DTD/sodipodi-0.dtd"
   xmlns:inkscape="http://www.inkscape.org/namespaces/inkscape"
   version="1.1"
   width="276.00092"
   height="276"
   id="svg7240"
   inkscape:version="0.48.2 r9819"
   sodipodi:docname="SD_Card_Association_Modified.svg"
   inkscape:export-filename="C:\Users\Anhoa.Vu\Dropbox\workspace\LAHWidgets\extra\sdcard.png"
   inkscape:export-xdpi="41.740002"
   inkscape:export-ydpi="41.740002">
  <sodipodi:namedview
     pagecolor="#ffffff"
     bordercolor="#666666"
     borderopacity="1"
     objecttolerance="10"
     gridtolerance="10"
     guidetolerance="10"
     inkscape:pageopacity="0"
     inkscape:pageshadow="2"
     inkscape:window-width="1920"
     inkscape:window-height="1016"
     id="namedview10"
     showgrid="false"
     inkscape:zoom="1.0579675"
     inkscape:cx="25.048028"
     inkscape:cy="41.983921"
     inkscape:window-x="-8"
     inkscape:window-y="-8"
     inkscape:window-maximized="1"
     inkscape:current-layer="svg7240" />
  <defs
     id="defs3">
    <clipPath
       id="clipPath118">
      <path
         d="M 0,729 516,729 516,0 0,0 0,729 z"
         id="path120"
         inkscape:connector-curvature="0" />
    </clipPath>
  </defs>
  <metadata
     id="metadata7244">
    <rdf:RDF>
      <cc:Work
         rdf:about="">
        <dc:format>image/svg+xml</dc:format>
        <dc:type
           rdf:resource="http://purl.org/dc/dcmitype/StillImage" />
        <dc:title></dc:title>
      </cc:Work>
    </rdf:RDF>
  </metadata>
  <g
     transform="translate(-34.702908,91.220518)"
     id="layer1">
    <g
       transform="matrix(6.6761796,0,0,-6.6761796,308.70382,21.489857)"
       id="g294">
      <path
         d="m 0,0 0,2.173 -0.287,0 -0.781,-1.475 -0.339,1.475 -0.248,0 L -2.371,0 l 0.284,0 0.534,1.662 0.009,0 0.376,-1.662 0.875,1.648 0.006,0 L -0.287,0 0,0 z m -3.141,0 0.27,1.899 0.615,0 0.038,0.274 -1.525,0 -0.041,-0.274 0.612,0 L -3.437,0 -3.141,0 z m -13.119,-0.352 3.642,2.262 c -0.886,0.126 -1.617,0.185 -2.043,0.2 -1.702,0.039 -2.377,0.069 -4.265,0.063 l -0.755,-2.127 c 0.467,-0.014 0.674,0.003 1.462,-0.072 0.717,-0.066 1.378,-0.18 1.959,-0.326 z m 1.75,-0.718 c 0.033,-0.022 0.064,-0.048 0.1,-0.07 l 6.162,2.039 c -0.421,0.182 -1.004,0.4 -1.434,0.516 l -5.336,-2.15 c 0.149,-0.08 0.388,-0.253 0.508,-0.335 z m 0.615,-0.658 c 0.041,-0.086 0.071,-0.174 0.085,-0.26 0.057,-0.349 -0.089,-0.692 -0.409,-1.021 -0.33,-0.33 -0.835,-0.645 -1.479,-0.916 -0.656,-0.277 -1.447,-0.51 -2.341,-0.687 -0.895,-0.176 -2.392,-0.324 -3.427,-0.361 l -1.7,-4.779 c 3.919,0.169 14.762,0.137 18.928,5.309 0.521,0.827 0.616,1.676 0.165,2.495 -0.507,0.927 -1.472,1.651 -2.631,2.22 l -7.283,-1.836 c 0.035,-0.054 0.069,-0.113 0.092,-0.164 z m -20.041,-8.047 c -3.512,0 -6.806,0.228 -6.806,0.228 l 1.357,3.74 c 0,0 2.902,-0.344 6.353,-0.407 2.229,-0.042 3.003,0 3.003,0.522 0,0.638 -2.055,1.007 -3.353,1.501 -1.358,0.519 -3.603,1.673 -3.417,3.339 0.137,1.286 1.267,2.627 7.314,2.929 4.193,0.205 8.424,0.094 8.424,0.094 l -0.75,-2.122 c 0,0 -5.876,-0.008 -7.392,-0.049 -1.394,-0.038 -3.395,-0.018 -3.395,-0.765 0,-0.584 2.982,-1.259 4.625,-1.745 2.425,-0.72 4.463,-1.817 3.926,-4.152 -0.755,-3.305 -4.885,-3.113 -9.889,-3.113"
         id="path296"
         style="fill:#231f20;fill-opacity:1;fill-rule:nonzero;stroke:none"
         inkscape:connector-curvature="0" />
    </g>
  </g>
</svg>
